<svg width="22" height="20" viewBox="0 0 22 20" fill="none" xmlns="http://www.w3.org/2000/svg">
    <path d="M21.2667 18.5714C21.6718 18.5714 22 18.8911 22 19.2857V20H14.6667V19.2857C14.6667 18.8911 14.9948 18.5714 15.4 18.5714H21.2667Z"
          fill="white"/>
    <path d="M21.2667 18.5714V17.8571C21.2667 17.4625 20.9385 17.1429 20.5333 17.1429H16.1333C15.7282 17.1429 15.4 17.4625 15.4 17.8571L15.4 18.5714H21.2667Z"
          fill="white"/>
    <path d="M18.3333 0H3.66667V2.85714H18.3333V0Z" fill="white"/>
    <path d="M18.3333 2.14286H3.66667V2.85714H18.3333V2.14286Z" fill="white"/>
    <path d="M21.2667 5.71428H0.733333L0 2.85714H22L21.2667 5.71428Z" fill="white"/>
    <path d="M20.5333 5.71428H16.1333V17.1429H20.5333V5.71428Z" fill="white"/>
    <path d="M6.6 18.5714C7.00517 18.5714 7.33333 18.8911 7.33333 19.2857V20H0V19.2857C0 18.8911 0.328167 18.5714 0.733333 18.5714H6.6Z"
          fill="white"/>
    <path d="M6.6 18.5714V17.8571C6.6 17.4625 6.27183 17.1429 5.86667 17.1429H1.46667C1.0615 17.1429 0.733334 17.4625 0.733334 17.8571L0.733333 18.5714H6.6Z"
          fill="white"/>
    <path d="M5.86667 5.71428H1.46667L1.46667 17.1429H5.86667L5.86667 5.71428Z" fill="white"/>
    <path d="M5.86667 11.3714C5.86667 8.61 8.16493 6.37143 11 6.37143C13.8351 6.37143 16.1333 8.61 16.1333 11.3714V4.22857H5.86667V11.3714Z"
          fill="white"/>
</svg>