<svg width="24" height="24" viewBox="0 0 24 24" fill="none" xmlns="http://www.w3.org/2000/svg">
    <path d="M7.99092 6.238C9.20133 6.0805 10.4351 6 11.6875 6C12.9399 6 14.1737 6.08108 15.3841 6.238C16.5052 6.38383 17.3038 7.32358 17.3703 8.41208C17.1753 8.34711 16.9732 8.30579 16.7683 8.289C15.1339 8.15332 13.4911 8.15332 11.8567 8.289C10.4812 8.40333 9.5 9.5665 9.5 10.8755V13.3757C9.49945 13.8562 9.6317 14.3275 9.88215 14.7377C10.1326 15.1478 10.4915 15.4807 10.9192 15.6997L9.37167 17.2467C9.31048 17.3078 9.23256 17.3494 9.14775 17.3662C9.06293 17.3831 8.97502 17.3744 8.89513 17.3413C8.81523 17.3083 8.74693 17.2522 8.69885 17.1804C8.65078 17.1085 8.62508 17.024 8.625 16.9375V14.5867C8.41336 14.5642 8.20199 14.5393 7.99092 14.512C6.81958 14.3592 6 13.3401 6 12.1903V8.55967C6 7.4105 6.81958 6.39025 7.99092 6.238Z" fill="#000000"/>
    <path d="M14.3125 9.0625C13.5098 9.0625 12.7147 9.09575 11.929 9.16108C11.0307 9.23575 10.375 9.99758 10.375 10.8761V13.3757C10.375 14.2548 11.033 15.0172 11.9325 15.0907C12.6576 15.1502 13.3908 15.1823 14.1305 15.1869L15.7533 16.8092C15.8145 16.8703 15.8924 16.9119 15.9773 16.9287C16.0621 16.9456 16.15 16.9369 16.2299 16.9038C16.3098 16.8708 16.3781 16.8147 16.4261 16.7429C16.4742 16.671 16.4999 16.5865 16.5 16.5V15.1058L16.6925 15.0907C17.592 15.0178 18.25 14.2548 18.25 13.3757V10.8755C18.25 9.99758 17.5938 9.23575 16.696 9.1605C15.9032 9.09494 15.108 9.06225 14.3125 9.0625Z" fill="#394039"/>
</svg>
