<svg width="540" height="540" viewBox="0 0 27 27" fill="none" xmlns="http://www.w3.org/2000/svg"><rect width="27" height="27" fill="#0000AA"/><path d="M11 3H10V4H11V5H12V7H11V10H10V8H9V9H8V11H7V15H6V22H7V23H8V24H16V23H18V22H19V20H20V16H19V14H18V13H17V11H16V9H15V6H14V5H13V4H11V3Z" fill="#FF0000"/><path d="M18 10H17V11H18V10Z" fill="#FF0000"/><path d="M17 7H16V8H17V7Z" fill="#FF0000"/><path d="M9 5H8V6H9V5Z" fill="#FF0000"/><path d="M13 8H14V9H13V8Z" fill="#FFAA00"/><path d="M13 9V13H14V11H15V12H16V15H17V18H18V21H17V22H16V23H15V24H10V23H9V22H8V17H9V16H10V15H11V11H12V9H13Z" fill="#FFAA00"/><path d="M9 13H10V14H9V13Z" fill="#FFAA00"/><path d="M11 9H10V10H11V9Z" fill="#FFAA00"/><path d="M14 6H13V7H14V6Z" fill="#FFAA00"/><path d="M15 10H16V11H15V10Z" fill="#FFD84C"/><path d="M15 12H16V13H15V12Z" fill="#FFD84C"/><path d="M15 5H16V6H15V5Z" fill="#FFD84C"/><path d="M11 8H12V9H11V8Z" fill="#FFD84C"/><path d="M10 23V22H9V20H8V18H9V17H10V14H11V12H12V11H13V9H14V13H15V14H16V17H17V21H16V22H15V23H10ZM12 19H11V20H12V21H15V20H12V19Z" fill="#FFD84C"/><path d="M7 15V18H13V15H14V18H20V12H14V14H13V12H7V14H4V17H5V15H7Z" fill="#0052FF"/><rect x="8" y="13" width="4" height="4" fill="white"/><rect x="15" y="13" width="4" height="4" fill="white"/><rect x="15" y="13" width="4" height="2" fill="#0052FF" opacity="0.3"/><rect x="8" y="13" width="4" height="2" fill="#0052FF" opacity="0.3"/><rect x="17" y="15" width="2" height="2" fill="#000000"/><rect x="10" y="15" width="2" height="2" fill="#000000"/></svg>