
<svg width="400" height="400" viewBox="0 0 400 400" fill="none" xmlns="http://www.w3.org/2000/svg">

<rect width="400" height="400" fill="black"/>
<path d="M65.3759 199.32C65.5945 200.195 65.7039 201.288 65.7039 202.6C65.7039 203.857 65.5945 204.951 65.3759 205.88C65.5945 206.755 65.7039 207.848 65.7039 209.16C65.7039 210.417 65.5945 211.511 65.3759 212.44H78.4959C78.7145 213.315 78.8239 214.408 78.8239 215.72C78.8239 216.977 78.7145 218.071 78.4959 219H58.8159C58.5972 218.071 58.4879 216.977 58.4879 215.72C58.4879 214.408 58.5972 213.315 58.8159 212.44C58.5972 211.511 58.4879 210.417 58.4879 209.16C58.4879 207.848 58.5972 206.755 58.8159 205.88C58.5972 204.951 58.4879 203.857 58.4879 202.6C58.4879 201.288 58.5972 200.195 58.8159 199.32C58.5972 198.391 58.4879 197.297 58.4879 196.04C58.4879 194.728 58.5972 193.635 58.8159 192.76C58.5972 191.831 58.4879 190.737 58.4879 189.48C58.4879 188.168 58.5972 187.075 58.8159 186.2C58.5972 185.271 58.4879 184.177 58.4879 182.92C58.4879 181.608 58.5972 180.515 58.8159 179.64C58.5972 178.711 58.4879 177.617 58.4879 176.36C58.4879 175.048 58.5972 173.955 58.8159 173.08H78.4959C78.7145 173.955 78.8239 175.048 78.8239 176.36C78.8239 177.617 78.7145 178.711 78.4959 179.64H65.3759C65.5945 180.515 65.7039 181.608 65.7039 182.92C65.7039 184.177 65.5945 185.271 65.3759 186.2C65.5945 187.075 65.7039 188.168 65.7039 189.48C65.7039 190.737 65.5945 191.831 65.3759 192.76H78.4959C78.7145 193.635 78.8239 194.728 78.8239 196.04C78.8239 197.297 78.7145 198.391 78.4959 199.32H65.3759ZM114.608 179.64C114.827 180.515 114.936 181.608 114.936 182.92C114.936 184.177 114.827 185.271 114.608 186.2C114.827 187.075 114.936 188.168 114.936 189.48C114.936 190.737 114.827 191.831 114.608 192.76C114.827 193.635 114.936 194.728 114.936 196.04C114.936 197.297 114.827 198.391 114.608 199.32C114.827 200.195 114.936 201.288 114.936 202.6C114.936 203.857 114.827 204.951 114.608 205.88C114.827 206.755 114.936 207.848 114.936 209.16C114.936 210.417 114.827 211.511 114.608 212.44C114.827 213.315 114.936 214.408 114.936 215.72C114.936 216.977 114.827 218.071 114.608 219H108.048C107.829 218.071 107.72 216.977 107.72 215.72C107.72 214.408 107.829 213.315 108.048 212.44C107.829 211.511 107.72 210.417 107.72 209.16C107.72 207.848 107.829 206.755 108.048 205.88C107.829 204.951 107.72 203.857 107.72 202.6C107.72 201.288 107.829 200.195 108.048 199.32C107.829 198.391 107.72 197.297 107.72 196.04C107.72 194.728 107.829 193.635 108.048 192.76C107.829 191.831 107.72 190.737 107.72 189.48C107.72 188.168 107.829 187.075 108.048 186.2H105.588C105.807 187.075 105.916 188.168 105.916 189.48C105.916 190.737 105.807 191.831 105.588 192.76C105.807 193.635 105.916 194.728 105.916 196.04C105.916 197.297 105.807 198.391 105.588 199.32H103.948C104.167 200.195 104.276 201.288 104.276 202.6C104.276 203.857 104.167 204.951 103.948 205.88C104.167 206.755 104.276 207.848 104.276 209.16C104.276 210.417 104.167 211.511 103.948 212.44H99.0279C98.8092 211.511 98.6999 210.417 98.6999 209.16C98.6999 207.848 98.8092 206.755 99.0279 205.88C98.8092 204.951 98.6999 203.857 98.6999 202.6C98.6999 201.288 98.8092 200.195 99.0279 199.32H97.3879C97.1692 198.391 97.0599 197.297 97.0599 196.04C97.0599 194.728 97.1692 193.635 97.3879 192.76C97.1692 191.831 97.0599 190.737 97.0599 189.48C97.0599 188.168 97.1692 187.075 97.3879 186.2H94.9279C95.1466 187.075 95.2559 188.168 95.2559 189.48C95.2559 190.737 95.1466 191.831 94.9279 192.76C95.1466 193.635 95.2559 194.728 95.2559 196.04C95.2559 197.297 95.1466 198.391 94.9279 199.32C95.1466 200.195 95.2559 201.288 95.2559 202.6C95.2559 203.857 95.1466 204.951 94.9279 205.88C95.1466 206.755 95.2559 207.848 95.2559 209.16C95.2559 210.417 95.1466 211.511 94.9279 212.44C95.1466 213.315 95.2559 214.408 95.2559 215.72C95.2559 216.977 95.1466 218.071 94.9279 219H88.3679C88.1492 218.071 88.0399 216.977 88.0399 215.72C88.0399 214.408 88.1492 213.315 88.3679 212.44C88.1492 211.511 88.0399 210.417 88.0399 209.16C88.0399 207.848 88.1492 206.755 88.3679 205.88C88.1492 204.951 88.0399 203.857 88.0399 202.6C88.0399 201.288 88.1492 200.195 88.3679 199.32C88.1492 198.391 88.0399 197.297 88.0399 196.04C88.0399 194.728 88.1492 193.635 88.3679 192.76C88.1492 191.831 88.0399 190.737 88.0399 189.48C88.0399 188.168 88.1492 187.075 88.3679 186.2C88.1492 185.271 88.0399 184.177 88.0399 182.92C88.0399 181.608 88.1492 180.515 88.3679 179.64C88.1492 178.711 88.0399 177.617 88.0399 176.36C88.0399 175.048 88.1492 173.955 88.3679 173.08H96.5679C96.7866 173.955 96.8959 175.048 96.8959 176.36C96.8959 177.617 96.7866 178.711 96.5679 179.64H99.0279C99.2466 180.515 99.3559 181.608 99.3559 182.92C99.3559 184.177 99.2466 185.271 99.0279 186.2H100.258C100.477 187.075 100.586 188.168 100.586 189.48C100.586 190.737 100.477 191.831 100.258 192.76H102.718C102.499 191.831 102.39 190.737 102.39 189.48C102.39 188.168 102.499 187.075 102.718 186.2H103.948C103.729 185.271 103.62 184.177 103.62 182.92C103.62 181.608 103.729 180.515 103.948 179.64H106.408C106.189 178.711 106.08 177.617 106.08 176.36C106.08 175.048 106.189 173.955 106.408 173.08H114.608C114.827 173.955 114.936 175.048 114.936 176.36C114.936 177.617 114.827 178.711 114.608 179.64ZM131.04 199.32C131.259 200.195 131.368 201.288 131.368 202.6C131.368 203.857 131.259 204.951 131.04 205.88C131.259 206.755 131.368 207.848 131.368 209.16C131.368 210.417 131.259 211.511 131.04 212.44H144.16C144.379 213.315 144.488 214.408 144.488 215.72C144.488 216.977 144.379 218.071 144.16 219H124.48C124.261 218.071 124.152 216.977 124.152 215.72C124.152 214.408 124.261 213.315 124.48 212.44C124.261 211.511 124.152 210.417 124.152 209.16C124.152 207.848 124.261 206.755 124.48 205.88C124.261 204.951 124.152 203.857 124.152 202.6C124.152 201.288 124.261 200.195 124.48 199.32C124.261 198.391 124.152 197.297 124.152 196.04C124.152 194.728 124.261 193.635 124.48 192.76C124.261 191.831 124.152 190.737 124.152 189.48C124.152 188.168 124.261 187.075 124.48 186.2C124.261 185.271 124.152 184.177 124.152 182.92C124.152 181.608 124.261 180.515 124.48 179.64C124.261 178.711 124.152 177.617 124.152 176.36C124.152 175.048 124.261 173.955 124.48 173.08H144.16C144.379 173.955 144.488 175.048 144.488 176.36C144.488 177.617 144.379 178.711 144.16 179.64H131.04C131.259 180.515 131.368 181.608 131.368 182.92C131.368 184.177 131.259 185.271 131.04 186.2C131.259 187.075 131.368 188.168 131.368 189.48C131.368 190.737 131.259 191.831 131.04 192.76H144.16C144.379 193.635 144.488 194.728 144.488 196.04C144.488 197.297 144.379 198.391 144.16 199.32H131.04ZM180.272 212.44C180.491 213.315 180.6 214.408 180.6 215.72C180.6 216.977 180.491 218.071 180.272 219H173.712C173.493 218.071 173.384 216.977 173.384 215.72C173.384 214.408 173.493 213.315 173.712 212.44H171.252C171.033 211.511 170.924 210.417 170.924 209.16C170.924 207.848 171.033 206.755 171.252 205.88H168.792C168.573 204.951 168.464 203.857 168.464 202.6C168.464 201.288 168.573 200.195 168.792 199.32H160.592C160.811 200.195 160.92 201.288 160.92 202.6C160.92 203.857 160.811 204.951 160.592 205.88C160.811 206.755 160.92 207.848 160.92 209.16C160.92 210.417 160.811 211.511 160.592 212.44C160.811 213.315 160.92 214.408 160.92 215.72C160.92 216.977 160.811 218.071 160.592 219H154.032C153.813 218.071 153.704 216.977 153.704 215.72C153.704 214.408 153.813 213.315 154.032 212.44C153.813 211.511 153.704 210.417 153.704 209.16C153.704 207.848 153.813 206.755 154.032 205.88C153.813 204.951 153.704 203.857 153.704 202.6C153.704 201.288 153.813 200.195 154.032 199.32C153.813 198.391 153.704 197.297 153.704 196.04C153.704 194.728 153.813 193.635 154.032 192.76C153.813 191.831 153.704 190.737 153.704 189.48C153.704 188.168 153.813 187.075 154.032 186.2C153.813 185.271 153.704 184.177 153.704 182.92C153.704 181.608 153.813 180.515 154.032 179.64C153.813 178.711 153.704 177.617 153.704 176.36C153.704 175.048 153.813 173.955 154.032 173.08H176.992C177.211 173.955 177.32 175.048 177.32 176.36C177.32 177.617 177.211 178.711 176.992 179.64H180.272C180.491 180.515 180.6 181.608 180.6 182.92C180.6 184.177 180.491 185.271 180.272 186.2H178.632C178.851 187.075 178.96 188.168 178.96 189.48C178.96 190.737 178.851 191.831 178.632 192.76H173.712C173.931 193.635 174.04 194.728 174.04 196.04C174.04 197.297 173.931 198.391 173.712 199.32H175.352C175.571 200.195 175.68 201.288 175.68 202.6C175.68 203.857 175.571 204.951 175.352 205.88H177.812C178.031 206.755 178.14 207.848 178.14 209.16C178.14 210.417 178.031 211.511 177.812 212.44H180.272ZM172.072 192.76C171.853 191.831 171.744 190.737 171.744 189.48C171.744 188.168 171.853 187.075 172.072 186.2C171.853 185.271 171.744 184.177 171.744 182.92C171.744 181.608 171.853 180.515 172.072 179.64H160.592C160.811 180.515 160.92 181.608 160.92 182.92C160.92 184.177 160.811 185.271 160.592 186.2C160.811 187.075 160.92 188.168 160.92 189.48C160.92 190.737 160.811 191.831 160.592 192.76H172.072ZM213.104 192.76C213.323 193.635 213.432 194.728 213.432 196.04C213.432 197.297 213.323 198.391 213.104 199.32C213.323 200.195 213.432 201.288 213.432 202.6C213.432 203.857 213.323 204.951 213.104 205.88C213.323 206.755 213.432 207.848 213.432 209.16C213.432 210.417 213.323 211.511 213.104 212.44H209.824C210.043 213.315 210.152 214.408 210.152 215.72C210.152 216.977 210.043 218.071 209.824 219H193.424C193.205 218.071 193.096 216.977 193.096 215.72C193.096 214.408 193.205 213.315 193.424 212.44H190.144C189.925 211.511 189.816 210.417 189.816 209.16C189.816 207.848 189.925 206.755 190.144 205.88H186.864C186.645 204.951 186.536 203.857 186.536 202.6C186.536 201.288 186.645 200.195 186.864 199.32C186.645 198.391 186.536 197.297 186.536 196.04C186.536 194.728 186.645 193.635 186.864 192.76C186.645 191.831 186.536 190.737 186.536 189.48C186.536 188.168 186.645 187.075 186.864 186.2H190.144C189.925 185.271 189.816 184.177 189.816 182.92C189.816 181.608 189.925 180.515 190.144 179.64H193.424C193.205 178.711 193.096 177.617 193.096 176.36C193.096 175.048 193.205 173.955 193.424 173.08H209.824C210.043 173.955 210.152 175.048 210.152 176.36C210.152 177.617 210.043 178.711 209.824 179.64H213.104C213.323 180.515 213.432 181.608 213.432 182.92C213.432 184.177 213.323 185.271 213.104 186.2H206.544C206.325 185.271 206.216 184.177 206.216 182.92C206.216 181.608 206.325 180.515 206.544 179.64H196.704C196.923 180.515 197.032 181.608 197.032 182.92C197.032 184.177 196.923 185.271 196.704 186.2H193.424C193.643 187.075 193.752 188.168 193.752 189.48C193.752 190.737 193.643 191.831 193.424 192.76C193.643 193.635 193.752 194.728 193.752 196.04C193.752 197.297 193.643 198.391 193.424 199.32C193.643 200.195 193.752 201.288 193.752 202.6C193.752 203.857 193.643 204.951 193.424 205.88H196.704C196.923 206.755 197.032 207.848 197.032 209.16C197.032 210.417 196.923 211.511 196.704 212.44H206.544C206.325 211.511 206.216 210.417 206.216 209.16C206.216 207.848 206.325 206.755 206.544 205.88C206.325 204.951 206.216 203.857 206.216 202.6C206.216 201.288 206.325 200.195 206.544 199.32H201.624C201.405 198.391 201.296 197.297 201.296 196.04C201.296 194.728 201.405 193.635 201.624 192.76H213.104ZM229.536 199.32C229.755 200.195 229.864 201.288 229.864 202.6C229.864 203.857 229.755 204.951 229.536 205.88C229.755 206.755 229.864 207.848 229.864 209.16C229.864 210.417 229.755 211.511 229.536 212.44H242.656C242.875 213.315 242.984 214.408 242.984 215.72C242.984 216.977 242.875 218.071 242.656 219H222.976C222.757 218.071 222.648 216.977 222.648 215.72C222.648 214.408 222.757 213.315 222.976 212.44C222.757 211.511 222.648 210.417 222.648 209.16C222.648 207.848 222.757 206.755 222.976 205.88C222.757 204.951 222.648 203.857 222.648 202.6C222.648 201.288 222.757 200.195 222.976 199.32C222.757 198.391 222.648 197.297 222.648 196.04C222.648 194.728 222.757 193.635 222.976 192.76C222.757 191.831 222.648 190.737 222.648 189.48C222.648 188.168 222.757 187.075 222.976 186.2C222.757 185.271 222.648 184.177 222.648 182.92C222.648 181.608 222.757 180.515 222.976 179.64C222.757 178.711 222.648 177.617 222.648 176.36C222.648 175.048 222.757 173.955 222.976 173.08H242.656C242.875 173.955 242.984 175.048 242.984 176.36C242.984 177.617 242.875 178.711 242.656 179.64H229.536C229.755 180.515 229.864 181.608 229.864 182.92C229.864 184.177 229.755 185.271 229.536 186.2C229.755 187.075 229.864 188.168 229.864 189.48C229.864 190.737 229.755 191.831 229.536 192.76H242.656C242.875 193.635 242.984 194.728 242.984 196.04C242.984 197.297 242.875 198.391 242.656 199.32H229.536ZM278.768 179.64C278.987 180.515 279.096 181.608 279.096 182.92C279.096 184.177 278.987 185.271 278.768 186.2C278.987 187.075 279.096 188.168 279.096 189.48C279.096 190.737 278.987 191.831 278.768 192.76C278.987 193.635 279.096 194.728 279.096 196.04C279.096 197.297 278.987 198.391 278.768 199.32C278.987 200.195 279.096 201.288 279.096 202.6C279.096 203.857 278.987 204.951 278.768 205.88C278.987 206.755 279.096 207.848 279.096 209.16C279.096 210.417 278.987 211.511 278.768 212.44C278.987 213.315 279.096 214.408 279.096 215.72C279.096 216.977 278.987 218.071 278.768 219H272.208C271.989 218.071 271.88 216.977 271.88 215.72C271.88 214.408 271.989 213.315 272.208 212.44H268.108C267.889 211.511 267.78 210.417 267.78 209.16C267.78 207.848 267.889 206.755 268.108 205.88H265.648C265.429 204.951 265.32 203.857 265.32 202.6C265.32 201.288 265.429 200.195 265.648 199.32H262.368C262.149 198.391 262.04 197.297 262.04 196.04C262.04 194.728 262.149 193.635 262.368 192.76H259.088C259.307 193.635 259.416 194.728 259.416 196.04C259.416 197.297 259.307 198.391 259.088 199.32C259.307 200.195 259.416 201.288 259.416 202.6C259.416 203.857 259.307 204.951 259.088 205.88C259.307 206.755 259.416 207.848 259.416 209.16C259.416 210.417 259.307 211.511 259.088 212.44C259.307 213.315 259.416 214.408 259.416 215.72C259.416 216.977 259.307 218.071 259.088 219H252.528C252.309 218.071 252.2 216.977 252.2 215.72C252.2 214.408 252.309 213.315 252.528 212.44C252.309 211.511 252.2 210.417 252.2 209.16C252.2 207.848 252.309 206.755 252.528 205.88C252.309 204.951 252.2 203.857 252.2 202.6C252.2 201.288 252.309 200.195 252.528 199.32C252.309 198.391 252.2 197.297 252.2 196.04C252.2 194.728 252.309 193.635 252.528 192.76C252.309 191.831 252.2 190.737 252.2 189.48C252.2 188.168 252.309 187.075 252.528 186.2C252.309 185.271 252.2 184.177 252.2 182.92C252.2 181.608 252.309 180.515 252.528 179.64C252.309 178.711 252.2 177.617 252.2 176.36C252.2 175.048 252.309 173.955 252.528 173.08H260.728C260.947 173.955 261.056 175.048 261.056 176.36C261.056 177.617 260.947 178.711 260.728 179.64H263.188C263.407 180.515 263.516 181.608 263.516 182.92C263.516 184.177 263.407 185.271 263.188 186.2H265.648C265.867 187.075 265.976 188.168 265.976 189.48C265.976 190.737 265.867 191.831 265.648 192.76H268.928C269.147 193.635 269.256 194.728 269.256 196.04C269.256 197.297 269.147 198.391 268.928 199.32H272.208C271.989 198.391 271.88 197.297 271.88 196.04C271.88 194.728 271.989 193.635 272.208 192.76C271.989 191.831 271.88 190.737 271.88 189.48C271.88 188.168 271.989 187.075 272.208 186.2C271.989 185.271 271.88 184.177 271.88 182.92C271.88 181.608 271.989 180.515 272.208 179.64C271.989 178.711 271.88 177.617 271.88 176.36C271.88 175.048 271.989 173.955 272.208 173.08H278.768C278.987 173.955 279.096 175.048 279.096 176.36C279.096 177.617 278.987 178.711 278.768 179.64ZM311.6 205.88C311.819 206.755 311.928 207.848 311.928 209.16C311.928 210.417 311.819 211.511 311.6 212.44H308.32C308.539 213.315 308.648 214.408 308.648 215.72C308.648 216.977 308.539 218.071 308.32 219H291.92C291.701 218.071 291.592 216.977 291.592 215.72C291.592 214.408 291.701 213.315 291.92 212.44H288.64C288.421 211.511 288.312 210.417 288.312 209.16C288.312 207.848 288.421 206.755 288.64 205.88H285.36C285.141 204.951 285.032 203.857 285.032 202.6C285.032 201.288 285.141 200.195 285.36 199.32C285.141 198.391 285.032 197.297 285.032 196.04C285.032 194.728 285.141 193.635 285.36 192.76C285.141 191.831 285.032 190.737 285.032 189.48C285.032 188.168 285.141 187.075 285.36 186.2H288.64C288.421 185.271 288.312 184.177 288.312 182.92C288.312 181.608 288.421 180.515 288.64 179.64H291.92C291.701 178.711 291.592 177.617 291.592 176.36C291.592 175.048 291.701 173.955 291.92 173.08H308.32C308.539 173.955 308.648 175.048 308.648 176.36C308.648 177.617 308.539 178.711 308.32 179.64H311.6C311.819 180.515 311.928 181.608 311.928 182.92C311.928 184.177 311.819 185.271 311.6 186.2H305.04C304.821 185.271 304.712 184.177 304.712 182.92C304.712 181.608 304.821 180.515 305.04 179.64H295.2C295.419 180.515 295.528 181.608 295.528 182.92C295.528 184.177 295.419 185.271 295.2 186.2H291.92C292.139 187.075 292.248 188.168 292.248 189.48C292.248 190.737 292.139 191.831 291.92 192.76C292.139 193.635 292.248 194.728 292.248 196.04C292.248 197.297 292.139 198.391 291.92 199.32C292.139 200.195 292.248 201.288 292.248 202.6C292.248 203.857 292.139 204.951 291.92 205.88H295.2C295.419 206.755 295.528 207.848 295.528 209.16C295.528 210.417 295.419 211.511 295.2 212.44H305.04C304.821 211.511 304.712 210.417 304.712 209.16C304.712 207.848 304.821 206.755 305.04 205.88H311.6ZM328.032 199.32C328.251 200.195 328.36 201.288 328.36 202.6C328.36 203.857 328.251 204.951 328.032 205.88C328.251 206.755 328.36 207.848 328.36 209.16C328.36 210.417 328.251 211.511 328.032 212.44H341.152C341.371 213.315 341.48 214.408 341.48 215.72C341.48 216.977 341.371 218.071 341.152 219H321.472C321.253 218.071 321.144 216.977 321.144 215.72C321.144 214.408 321.253 213.315 321.472 212.44C321.253 211.511 321.144 210.417 321.144 209.16C321.144 207.848 321.253 206.755 321.472 205.88C321.253 204.951 321.144 203.857 321.144 202.6C321.144 201.288 321.253 200.195 321.472 199.32C321.253 198.391 321.144 197.297 321.144 196.04C321.144 194.728 321.253 193.635 321.472 192.76C321.253 191.831 321.144 190.737 321.144 189.48C321.144 188.168 321.253 187.075 321.472 186.2C321.253 185.271 321.144 184.177 321.144 182.92C321.144 181.608 321.253 180.515 321.472 179.64C321.253 178.711 321.144 177.617 321.144 176.36C321.144 175.048 321.253 173.955 321.472 173.08H341.152C341.371 173.955 341.48 175.048 341.48 176.36C341.48 177.617 341.371 178.711 341.152 179.64H328.032C328.251 180.515 328.36 181.608 328.36 182.92C328.36 184.177 328.251 185.271 328.032 186.2C328.251 187.075 328.36 188.168 328.36 189.48C328.36 190.737 328.251 191.831 328.032 192.76H341.152C341.371 193.635 341.48 194.728 341.48 196.04C341.48 197.297 341.371 198.391 341.152 199.32H328.032Z" fill="#83E174"/>

</svg>
