
<svg width="400" height="400" viewBox="0 0 400 400" fill="none" xmlns="http://www.w3.org/2000/svg">
<rect width="400" height="400" fill="#855DCD"/>
<path fill-rule="evenodd" clip-rule="evenodd" d="M160.317 311H82.419V302.445C82.419 298.508 85.5962 295.316 89.5151 295.316H90.9341V286.761C90.9341 282.824 94.1109 279.632 98.0298 279.632V152.735H90.2246L81 121.368H122.156V90H276.844V121.368H318L308.775 152.735H300.97V279.632C304.889 279.632 308.066 282.824 308.066 286.761V295.316H309.485C313.404 295.316 316.581 298.508 316.581 302.445V311H238.77V302.445C238.77 298.508 241.947 295.316 245.866 295.316H247.285V286.761C247.285 282.906 250.332 279.765 254.138 279.637V209.768C251.628 181.79 228.001 159.864 199.5 159.864C170.999 159.864 147.372 181.79 144.862 209.768V279.634C148.709 279.717 151.802 282.876 151.802 286.761V291.039V295.316H153.221C157.14 295.316 160.317 298.508 160.317 302.445V311Z" fill="white"/>
</svg>
