<svg width="720" height="720" viewBox="0 0 24 24" fill="none" xmlns="http://www.w3.org/2000/svg"><rect width="24" height="24" fill="#DBAEB4"/><path d="M7 15V24H10V21H16V6H7V12H6V15H7Z" fill="#53A3FC"/><path d="M6 15H7V24H6V15Z" fill="#3B7AFF"/><path d="M5 12H6V15H5V12Z" fill="#3B7AFF"/><path d="M6 6H7V12H6V6Z" fill="#3B7AFF"/><path d="M7 5H16V6H7V5Z" fill="#3B7AFF"/><path d="M16 6H17V21H16V6Z" fill="#3B7AFF"/><path d="M9 21H16V22H9V21Z" fill="#3B7AFF"/><path d="M8 20H9V21H8V20Z" fill="#3B7AFF"/><path d="M10 22H11V24H10V22Z" fill="#3B7AFF"/><path d="M12 15H15V16H12V15Z" fill="#3B7AFF"/><path d="M7 7H8V9H7V7Z" fill="#82BCFC"/><path d="M8 6H9V7H8V6Z" fill="#82BCFC"/><path d="M5 8H7V9H5V8Z" fill="#303135"/><path d="M5 5H6V6H5V5Z" fill="#303135"/><path d="M8 2H9V4H8V2Z" fill="#303135"/><path d="M9 4H10V6H9V4Z" fill="#303135"/><path d="M11 4H12V5H11V4Z" fill="#303135"/><path d="M12 3H13V4H12V3Z" fill="#303135"/><path d="M14 3H15V5H14V3Z" fill="#303135"/><path d="M15 2H16V3H15V2Z" fill="#303135"/><path d="M16 3H17V4H16V3Z" fill="#303135"/><path d="M17 6H18V7H17V6Z" fill="#303135"/><path d="M10 18V19H9V17H16V18H10Z" fill="#3B7AFF"/><path d="M10 19H16V20H10V19Z" fill="#3B7AFF"/><path d="M10 18H11V19H10V18Z" fill="#CEDFFB"/><path d="M12 18H13V19H12V18Z" fill="#CEDFFB"/><path d="M14 18H15V19H14V18Z" fill="#CEDFFB"/><path d="M11 18H12V19H11V18Z" fill="#303135"/><path d="M13 18H14V19H13V18Z" fill="#303135"/><path d="M15 18H16V19H15V18Z" fill="#303135"/><path d="M8 12H5V11H8V10H13V11H14V10H19V15H14V12H13V15H8V12Z" fill="#52535A"/><path d="M9 11H12V14H9V11Z" fill="#3B7AFF"/><path d="M15 11H18V14H15V11Z" fill="#3B7AFF"/><path d="M9 12H10V13H9V12Z" fill="#CEDFFB"/><path d="M10 12H12V13H10V12Z" fill="#303135"/><path d="M16 12H18V13H16V12Z" fill="#303135"/><path d="M15 12H16V13H15V12Z" fill="#CEDFFB"/></svg>