<svg width="720" height="720" viewBox="0 0 24 24" fill="none" xmlns="http://www.w3.org/2000/svg"><rect width="24" height="24" fill="#B9B9B7"/><path d="M7 15V24H10V21H16V6H7V12H6V15H7Z" fill="#53A3FC"/><path d="M6 15H7V24H6V15Z" fill="#3B7AFF"/><path d="M5 12H6V15H5V12Z" fill="#3B7AFF"/><path d="M6 6H7V12H6V6Z" fill="#3B7AFF"/><path d="M7 5H16V6H7V5Z" fill="#3B7AFF"/><path d="M16 6H17V21H16V6Z" fill="#3B7AFF"/><path d="M9 21H16V22H9V21Z" fill="#3B7AFF"/><path d="M8 20H9V21H8V20Z" fill="#3B7AFF"/><path d="M10 22H11V24H10V22Z" fill="#3B7AFF"/><path d="M12 15H15V16H12V15Z" fill="#3B7AFF"/><path d="M7 7H8V9H7V7Z" fill="#82BCFC"/><path d="M8 6H9V7H8V6Z" fill="#82BCFC"/><path d="M18 6V12H17V10H16V11H15V9H14V10H13V8H12V9H11V8H10V7H9V8H8V6H6V5H7V4H8V3H15V4H16V5H17V6H18Z" fill="#303135"/><path d="M6 7H7V8H6V7Z" fill="#303135"/><path d="M6 9H7V10H6V9Z" fill="#303135"/><path d="M8 9H9V10H8V9Z" fill="#303135"/><path d="M9 15H10V16H9V15Z" fill="#303135"/><path d="M17 15H18V16H17V15Z" fill="#303135"/><path d="M8 16H9V17H8V16Z" fill="#303135"/><path d="M18 16H19V17H18V16Z" fill="#303135"/><path d="M9 17H11V18H9V17Z" fill="#303135"/><path d="M11 17H16V18H11V17Z" fill="#3B7AFF"/><path d="M16 17H18V18H16V17Z" fill="#303135"/><path d="M11 16H16V17H11V16Z" fill="#303135"/><path d="M14 14V13H17V12H14V11H18V14H14Z" fill="#3B7AFF"/><path d="M12 14V13H9V14H12Z" fill="#3B7AFF"/><path d="M9 12H12V11H9V12Z" fill="#3B7AFF"/><path d="M9 12H11V13H9V12Z" fill="#CEDFFB"/><path d="M14 12H16V13H14V12Z" fill="#CEDFFB"/><path d="M11 12H12V13H11V12Z" fill="#303135"/><path d="M16 12H17V13H16V12Z" fill="#303135"/></svg>