<svg width="250" height="250" viewBox="0 0 250 250" fill="none" xmlns="http://www.w3.org/2000/svg">
    <rect width="250" height="250" fill="#0052FF"/>
    <path d="M29.2754 109.091H35.4572V115.273H29.2754V109.091ZM29.2754 115.273H35.4572V121.455H29.2754V115.273ZM29.2754 121.455H35.4572V127.636H29.2754V121.455ZM29.2754 127.636H35.4572V133.818H29.2754V127.636ZM29.2754 133.818H35.4572V140H29.2754V133.818ZM35.4572 109.091H41.639V115.273H35.4572V109.091ZM41.639 109.091H47.8208V115.273H41.639V109.091ZM41.639 115.273H47.8208V121.455H41.639V115.273ZM41.639 127.636H47.8208V133.818H41.639V127.636ZM41.639 133.818H47.8208V140H41.639V133.818ZM35.4572 133.818H41.639V140H35.4572V133.818ZM35.4572 121.455H41.639V127.636H35.4572V121.455ZM53.9785 133.818H60.1603V140H53.9785V133.818ZM53.9785 127.636H60.1603V133.818H53.9785V127.636ZM53.9785 121.455H60.1603V127.636H53.9785V121.455ZM53.9785 115.273H60.1603V121.455H53.9785V115.273ZM60.1603 109.091H66.3422V115.273H60.1603V109.091ZM66.3422 115.273H72.524V121.455H66.3422V115.273ZM66.3422 121.455H72.524V127.636H66.3422V121.455ZM66.3422 127.636H72.524V133.818H66.3422V127.636ZM66.3422 133.818H72.524V140H66.3422V133.818ZM60.1603 121.455H66.3422V127.636H60.1603V121.455ZM91.0453 109.091H97.2271V115.273H91.0453V109.091ZM84.8635 109.091H91.0453V115.273H84.8635V109.091ZM78.6816 115.273H84.8635V121.455H78.6816V115.273ZM78.6816 121.455H84.8635V127.636H78.6816V121.455ZM84.8635 121.455H91.0453V127.636H84.8635V121.455ZM91.0453 121.455H97.2271V127.636H91.0453V121.455ZM91.0453 127.636H97.2271V133.818H91.0453V127.636ZM91.0453 133.818H97.2271V140H91.0453V133.818ZM84.8635 133.818H91.0453V140H84.8635V133.818ZM78.6816 133.818H84.8635V140H78.6816V133.818ZM78.6816 109.091H84.8635V115.273H78.6816V109.091ZM103.385 109.091H109.567V115.273H103.385V109.091ZM103.385 115.273H109.567V121.455H103.385V115.273ZM103.385 121.455H109.567V127.636H103.385V121.455ZM103.385 127.636H109.567V133.818H103.385V127.636ZM103.385 133.818H109.567V140H103.385V133.818ZM109.567 109.091H115.748V115.273H109.567V109.091ZM109.567 133.818H115.748V140H109.567V133.818ZM109.567 121.455H115.748V127.636H109.567V121.455ZM115.748 109.091H121.93V115.273H115.748V109.091ZM115.748 133.818H121.93V140H115.748V133.818ZM128.088 133.818H134.27V140H128.088V133.818ZM128.088 127.636H134.27V133.818H128.088V127.636ZM128.088 121.455H134.27V127.636H128.088V121.455ZM128.088 115.273H134.27V121.455H128.088V115.273ZM128.088 109.091H134.27V115.273H128.088V109.091ZM134.27 109.091H140.452V115.273H134.27V109.091ZM140.452 109.091H146.633V115.273H140.452V109.091ZM140.452 115.273H146.633V121.455H140.452V115.273ZM134.27 121.455H140.452V127.636H134.27V121.455ZM140.452 127.636H146.633V133.818H140.452V127.636ZM140.452 133.818H146.633V140H140.452V133.818ZM152.791 133.818H158.973V140H152.791V133.818ZM152.791 127.636H158.973V133.818H152.791V127.636ZM152.791 121.455H158.973V127.636H152.791V121.455ZM152.791 115.273H158.973V121.455H152.791V115.273ZM158.973 109.091H165.155V115.273H158.973V109.091ZM165.155 115.273H171.336V121.455H165.155V115.273ZM165.155 121.455H171.336V127.636H165.155V121.455ZM165.155 127.636H171.336V133.818H165.155V127.636ZM165.155 133.818H171.336V140H165.155V133.818ZM158.973 121.455H165.155V127.636H158.973V121.455ZM183.676 109.091H189.858V115.273H183.676V109.091ZM177.494 109.091H183.676V115.273H177.494V109.091ZM177.494 115.273H183.676V121.455H177.494V115.273ZM177.494 121.455H183.676V127.636H177.494V121.455ZM177.494 127.636H183.676V133.818H177.494V127.636ZM177.494 133.818H183.676V140H177.494V133.818ZM183.676 133.818H189.858V140H183.676V133.818ZM196.021 109.091H202.203V115.273H196.021V109.091ZM196.021 115.273H202.203V121.455H196.021V115.273ZM196.021 121.455H202.203V127.636H196.021V121.455ZM196.021 127.636H202.203V133.818H196.021V127.636ZM196.021 133.818H202.203V140H196.021V133.818ZM202.203 109.091H208.385V115.273H202.203V109.091ZM202.203 133.818H208.385V140H202.203V133.818ZM202.203 121.455H208.385V127.636H202.203V121.455ZM208.385 109.091H214.567V115.273H208.385V109.091ZM208.385 133.818H214.567V140H208.385V133.818Z" fill="white"/>
</svg>