
<svg width="400" height="400" viewBox="0 0 400 400" fill="none" xmlns="http://www.w3.org/2000/svg">
    <rect width="400" height="400" fill="#DAF2DA"/>
    <path d="M100 200V260H220V200H240V260H360V140H240V180H220V140H100V180H40V240H60V200H100Z" fill="#A16FB3"/>
    <rect x="120" y="160" width="80" height="80" fill="#DAF2DA"/>
    <rect x="260" y="160" width="80" height="80" fill="#DAF2DA"/>
    <rect opacity="0.3" x="260" y="160" width="80" height="40" fill="#A16FB3"/>
    <rect opacity="0.3" x="120" y="160" width="80" height="40" fill="#A16FB3"/>
    <rect x="300" y="200" width="40" height="20" fill="#A16FB3"/>
    <rect x="160" y="200" width="40" height="20" fill="#A16FB3"/>
    <path d="M100 200V260H220V200H240V260H360V140H240V180H220V140H100V180H40V240H60V200H100Z" fill="#1E1E1E"/>
    <rect x="120" y="160" width="80" height="80" fill="#DAF2DA"/>
    <rect x="260" y="160" width="80" height="80" fill="#DAF2DA"/>
    <path d="M140 220V180H160V200H180V220H140Z" fill="#1E1E1E"/>
    <path d="M280 220V180H300V200H320V220H280Z" fill="#1E1E1E"/>
    <rect x="160" y="180" width="20" height="20" fill="#95A694"/>
    <rect x="300" y="180" width="20" height="20" fill="#95A694"/>
</svg>
